# xmcd
#
# Track frame offsets:
#	150
#	16678
#	33962
#	47917
#	67359
#	80858
#	97551
#	113221
#	128407
#	143929
#	161880
#	179413
#	194765
#	207310
#	221774
#	238354
#	254918
#
# Disc length: 3587 seconds
#
# Revision: 1
# Processed by: cddbd v1.5.2PL0 Copyright (c) Steve Scherf et al.
# Submitted via: audiograbber 1.83.01
#
DISCID=090e0111
DTITLE=Various Artist - Nu Country Traxx 011
DYEAR=2000
DGENRE=Country
TTITLE0=Darryl Worley - When You Need My Love
TTITLE1=Dixie Chicks - Goodbye Earl
TTITLE2=Dolly Parton - Steady As The Rain
TTITLE3=Jason Sellars - Can't Help Calling Your Name
TTITLE4=Joe Diffie - It's Always Somethin'
TTITLE5=Lila Mccann - Kiss Me Now
TTITLE6=Luke Reed - If There Asn't Any Cows
TTITLE7=Wylie and The Wild West - Ridin' The Hi-Line
TTITLE8=Tara Lyn Hart - Don't Ever Let Me Go
TTITLE9=Tim Rushlow - When You Love Me
TTITLE10=Coley Mccabe - Grw Young With You
TTITLE11=Asleep At The Wheel - Cherokee Maiden
TTITLE12=Blackhawk - I Need You All The Time
TTITLE13=Jack Ingram - Work This Out
TTITLE14=Wade Hayes - Up North (Down South, Back East, Out West)
TTITLE15=Bellamy Brothers Ft Freddy Fender - Vertical Expression (Of Horizontal
TTITLE15=Desire)
TTITLE16=Sisters Wade - I Told Him About You
EXTD=
EXTT0=
EXTT1=
EXTT2=
EXTT3=
EXTT4=
EXTT5=
EXTT6=
EXTT7=
EXTT8=
EXTT9=
EXTT10=
EXTT11=
EXTT12=
EXTT13=
EXTT14=
EXTT15=
EXTT16=
PLAYORDER=
